Coordinates
version=1
nRows=21
nColumns=34
inDegrees=no

Units are S.I. units (second, meters, Newtons, ...)
If the header above contains a line with 'inDegrees', this indicates whether rotational values are in degrees (yes) or radians (no).

endheader
time	pelvis_tilt	pelvis_list	pelvis_rotation	pelvis_tx	pelvis_ty	pelvis_tz	hip_flexion_r	hip_adduction_r	hip_rotation_r	knee_angle_r	ankle_angle_r	subtalar_angle_r	mtp_angle_r	hip_flexion_l	hip_adduction_l	hip_rotation_l	knee_angle_l	ankle_angle_l	subtalar_angle_l	mtp_angle_l	lumbar_extension	lumbar_bending	lumbar_rotation	arm_flex_r	arm_add_r	arm_rot_r	elbow_flex_r	pro_sup_r	arm_flex_l	arm_add_l	arm_rot_l	elbow_flex_l	pro_sup_l
1.87	0.00918144	0.0386483	-0.0392116	-0.064133	1.57023	-0.622713	0.0950889	-0.153588	-0.28562	0.258489	-0.478126	0.10121	-0.0149132	0.144579	-0.0442651	-0.315129	0.214953	-0.566018	0.0807992	0.000693788	-0.348704	-0.0986094	0.025654	0.141117	-0.458318	-0.503908	2.06467	1.77378	-0.0192208	-0.427135	-0.25259	1.49969	1.82672
1.88	0.0118429	0.0380109	-0.0426865	-0.062692	1.56801	-0.623139	0.0930735	-0.154319	-0.287336	0.256142	-0.48041	0.10477	-0.0149009	0.139223	-0.0438821	-0.31769	0.206397	-0.568361	0.0857577	0.000686707	-0.350998	-0.0976191	0.0288219	0.127237	-0.453768	-0.509399	2.06671	1.77566	-0.04308	-0.414336	-0.26074	1.4787	1.82139
1.89	0.0142983	0.0372648	-0.0466521	-0.0612744	1.56475	-0.623555	0.09178	-0.15499	-0.288677	0.254518	-0.483055	0.108955	-0.0148885	0.134267	-0.0436748	-0.320954	0.199047	-0.570401	0.0899416	0.000679629	-0.352982	-0.0966297	0.0322669	0.114588	-0.45139	-0.51466	2.06964	1.77844	-0.066681	-0.401755	-0.269507	1.45957	1.81414
1.9	0.0165417	0.0365023	-0.0509902	-0.0598712	1.56045	-0.623966	0.0911376	-0.155703	-0.289767	0.253578	-0.486089	0.113468	-0.0148762	0.129673	-0.0435191	-0.324937	0.192737	-0.572403	0.0932373	0.000672555	-0.354654	-0.0957222	0.0357957	0.103099	-0.451117	-0.519729	2.07363	1.78191	-0.0902807	-0.389504	-0.278781	1.44258	1.80509
1.91	0.0185624	0.0357958	-0.0555984	-0.058473	1.55511	-0.624371	0.0910812	-0.156526	-0.290746	0.253271	-0.48951	0.118056	-0.0148639	0.125413	-0.0433332	-0.329627	0.187292	-0.574578	0.095656	0.000665486	-0.355992	-0.0949636	0.0392637	0.0926534	-0.452856	-0.524643	2.07881	1.78557	-0.114086	-0.377694	-0.288479	1.42799	1.7947
1.92	0.0203461	0.0351826	-0.0603953	-0.0570709	1.54873	-0.624766	0.0915511	-0.157476	-0.291749	0.25354	-0.49326	0.12254	-0.0148516	0.121462	-0.0430834	-0.334973	0.182541	-0.577044	0.0973105	0.00065842	-0.356957	-0.0943929	0.0426042	0.0830814	-0.456497	-0.529488	2.08532	1.78874	-0.13823	-0.366413	-0.298576	1.41604	1.78375
1.93	0.0218723	0.0346638	-0.0653171	-0.0556579	1.5413	-0.625147	0.0924984	-0.15853	-0.29287	0.254336	-0.497215	0.126796	-0.0148392	0.117811	-0.0427746	-0.340857	0.178331	-0.579818	0.0983757	0.000651355	-0.357501	-0.0940158	0.0458335	0.074166	-0.461929	-0.534442	2.09325	1.79077	-0.162764	-0.355699	-0.309101	1.4069	1.77313
1.94	0.0231117	0.034213	-0.0703115	-0.0542311	1.53283	-0.625511	0.093891	-0.159632	-0.294139	0.25562	-0.501221	0.130726	-0.0148269	0.11447	-0.0424387	-0.347088	0.174531	-0.582831	0.0990503	0.000644291	-0.357569	-0.093802	0.0490311	0.0656688	-0.469043	-0.539765	2.1027	1.79129	-0.187672	-0.345541	-0.320119	1.40078	1.76353
1.95	0.0240247	0.0337889	-0.0753342	-0.0527882	1.52331	-0.625858	0.0957081	-0.160703	-0.295526	0.257347	-0.50515	0.13424	-0.0148145	0.111469	-0.0421235	-0.353404	0.171039	-0.585954	0.0995174	0.000637226	-0.357106	-0.0936886	0.0523076	0.0573688	-0.477734	-0.545759	2.1137	1.79027	-0.212914	-0.335877	-0.331703	1.39785	1.75531
1.96	0.0245714	0.0333514	-0.0803432	-0.0513271	1.51274	-0.626188	0.0979254	-0.161659	-0.29694	0.259452	-0.508944	0.137248	-0.0148022	0.108835	-0.0418735	-0.359491	0.167772	-0.589021	0.0999099	0.00063016	-0.356063	-0.0936037	0.0557739	0.0490986	-0.487898	-0.552707	2.12624	1.78798	-0.238467	-0.326612	-0.343905	1.39831	1.74853
1.97	0.0247267	0.0328752	-0.0853069	-0.0498446	1.50111	-0.626504	0.100496	-0.162434	-0.298248	0.261827	-0.512625	0.139663	-0.0147898	0.106578	-0.0417066	-0.365033	0.164649	-0.591856	0.100296	0.000623093	-0.354412	-0.0934965	0.0595107	0.0407642	-0.499419	-0.560823	2.14025	1.78485	-0.264359	-0.317645	-0.356717	1.40238	1.74302
1.98	0.024489	0.032365	-0.0902037	-0.0483373	1.48843	-0.626807	0.103343	-0.163001	-0.29929	0.264329	-0.516254	0.141441	-0.0147775	0.104674	-0.0416045	-0.369751	0.161593	-0.59429	0.100693	0.000616027	-0.35215	-0.0933563	0.0635494	0.0323482	-0.51216	-0.570226	2.15558	1.78127	-0.290685	-0.308892	-0.370052	1.41027	1.73845
1.99	0.0238824	0.0318571	-0.0950155	-0.0468016	1.4747	-0.627097	0.106357	-0.163376	-0.299907	0.266794	-0.519875	0.142622	-0.0147651	0.103071	-0.0415193	-0.373447	0.158538	-0.596178	0.101089	0.000608964	-0.349299	-0.0932166	0.0678667	0.0238977	-0.525955	-0.580934	2.17205	1.77745	-0.317585	-0.300296	-0.383756	1.42218	1.73448
2	0.0229541	0.0314115	-0.0997188	-0.0452352	1.45993	-0.627373	0.109405	-0.16361	-0.299962	0.269047	-0.523446	0.143375	-0.0147527	0.101707	-0.0413897	-0.376025	0.155453	-0.597395	0.101462	0.000601905	-0.345905	-0.0931469	0.0723903	0.0155029	-0.540594	-0.592895	2.18943	1.77335	-0.345215	-0.291825	-0.397652	1.43825	1.73092
2.01	0.0217699	0.0310987	-0.104275	-0.0436383	1.44411	-0.627634	0.112336	-0.163781	-0.299354	0.270928	-0.526806	0.144007	-0.0147403	0.100532	-0.0411643	-0.377489	0.152376	-0.597845	0.101797	0.000594851	-0.34204	-0.093236	0.0770137	0.00726683	-0.55582	-0.606028	2.20751	1.76871	-0.373701	-0.283468	-0.41157	1.45854	1.72782
2.02	0.0204071	0.0309794	-0.108622	-0.04201	1.42727	-0.627876	0.11499	-0.163966	-0.298038	0.272301	-0.529675	0.144922	-0.0147279	0.0995277	-0.0408283	-0.37792	0.149454	-0.59743	0.102091	0.000587805	-0.337801	-0.0935688	0.0816211	-0.000728021	-0.571324	-0.620284	2.22612	1.76312	-0.403087	-0.275227	-0.42537	1.48297	1.72552
2.03	0.0189459	0.0310825	-0.112668	-0.040348	1.4094	-0.628093	0.117208	-0.16422	-0.296042	0.273086	-0.531685	0.146557	-0.0147155	0.0987482	-0.0404294	-0.377437	0.146992	-0.596015	0.10236	0.000580767	-0.333304	-0.0941991	0.086115	-0.0084482	-0.586749	-0.63569	2.24513	1.75612	-0.43329	-0.267113	-0.438937	1.51131	1.72447
2.04	0.0174708	0.0313849	-0.116294	-0.0386582	1.39053	-0.628287	0.118867	-0.16456	-0.29348	0.273309	-0.532406	0.149278	-0.0147031	0.098342	-0.0400894	-0.376136	0.145493	-0.59337	0.102618	0.000573734	-0.328685	-0.0951268	0.0904322	-0.015917	-0.601694	-0.652358	2.26453	1.74718	-0.464068	-0.259141	-0.452171	1.54318	1.72519
2.05	0.0160886	0.0318026	-0.119347	-0.0369687	1.37067	-0.628459	0.119906	-0.164954	-0.290537	0.27318	-0.531328	0.153275	-0.0146906	0.0985677	-0.0400009	-0.374019	0.145686	-0.589089	0.102834	0.000566701	-0.324103	-0.0962842	0.0945427	-0.0231865	-0.615724	-0.670447	2.28442	1.73588	-0.495023	-0.251327	-0.464987	1.57808	1.7281
2.06	0.0149046	0.0322044	-0.121652	-0.0353237	1.34983	-0.628617	0.120363	-0.165327	-0.287434	0.273189	-0.527786	0.158464	-0.0146782	0.0997866	-0.0404094	-0.370964	0.148557	-0.582494	0.102906	0.00055966	-0.319768	-0.097534	0.0984383	-0.0302884	-0.628371	-0.690092	2.30498	1.72205	-0.52561	-0.243681	-0.477317	1.61541	1.73348
2.07	0.0139789	0.0324317	-0.123029	-0.0337704	1.32801	-0.628776	0.1204	-0.165577	-0.284359	0.274204	-0.520842	0.164411	-0.0146658	0.102451	-0.041576	-0.366712	0.155356	-0.572531	0.102649	0.000552607	-0.315969	-0.0986799	0.10211	-0.0371822	-0.639146	-0.711315	2.32647	1.70587	-0.555167	-0.236205	-0.489105	1.65453	1.74132
